<svg width="182" height="50" viewBox="0 0 182 50" fill="none" xmlns="http://www.w3.org/2000/svg">
<path d="M80.3566 11.4062H83.6613L80.5852 29.5293C80.2453 31.9434 79.2668 33.8711 77.6496 35.3125C76.0324 36.7422 74.0168 37.4336 71.6027 37.3867C69.3527 37.3398 67.6125 36.6602 66.382 35.3477C65.1516 34.0352 64.6066 32.2305 64.7473 29.9336H68.0344C67.9055 31.3398 68.1691 32.4648 68.8254 33.3086C69.4816 34.1406 70.466 34.5684 71.7785 34.5918C73.2199 34.6387 74.4387 34.1875 75.4348 33.2383C76.4309 32.2891 77.0402 31.0586 77.2629 29.5469L80.3566 11.4062ZM95.1113 17.6289C96.7051 17.6523 98.0703 18.0859 99.207 18.9297C100.344 19.7734 101.182 20.9395 101.721 22.4277C102.271 23.9043 102.459 25.5215 102.283 27.2793L102.248 27.666C102.025 29.5176 101.475 31.1934 100.596 32.6934C99.7168 34.1816 98.5801 35.3418 97.1855 36.1738C95.791 37.0059 94.2617 37.3984 92.5977 37.3516C91.0156 37.3281 89.6504 36.8945 88.502 36.0508C87.3652 35.207 86.5332 34.0586 86.0059 32.6055C85.4785 31.1523 85.291 29.5527 85.4434 27.8066C85.6191 25.8379 86.1523 24.0684 87.043 22.498C87.9336 20.9277 89.0762 19.7148 90.4707 18.8594C91.877 17.9922 93.4238 17.582 95.1113 17.6289ZM88.6426 27.8242C88.5605 28.5625 88.5605 29.3301 88.6426 30.127C88.7598 31.5098 89.1699 32.6113 89.873 33.4316C90.5879 34.252 91.5371 34.6797 92.7207 34.7148C93.7754 34.75 94.748 34.4922 95.6387 33.9414C96.5293 33.3789 97.2793 32.5352 97.8887 31.4102C98.498 30.2852 98.8906 29.0371 99.0664 27.666C99.1602 26.5879 99.1777 25.6797 99.1191 24.9414C98.9785 23.5234 98.5508 22.4043 97.8359 21.584C97.1211 20.7637 96.1719 20.3301 94.9883 20.2832C93.3477 20.248 91.9531 20.8926 90.8047 22.2168C89.6562 23.541 88.9473 25.2754 88.6777 27.4199L88.6426 27.8242ZM113.259 13.375L112.45 17.9805H115.913L115.473 20.4941H112.028L110.042 32.3242C110.007 32.6289 110.001 32.9102 110.024 33.168C110.106 34.082 110.604 34.5391 111.518 34.5391C111.905 34.5391 112.421 34.4805 113.065 34.3633L112.819 37.0176C112.057 37.2285 111.284 37.334 110.499 37.334C109.233 37.3105 108.284 36.8477 107.651 35.9453C107.018 35.0312 106.772 33.8066 106.913 32.2715L108.846 20.4941H105.489L105.929 17.9805H109.286L110.095 13.375H113.259ZM120.103 37H116.939L121.615 10H124.796L120.103 37ZM136.071 17.6289C137.664 17.6523 139.03 18.0859 140.166 18.9297C141.303 19.7734 142.141 20.9395 142.68 22.4277C143.231 23.9043 143.418 25.5215 143.243 27.2793L143.207 27.666C142.985 29.5176 142.434 31.1934 141.555 32.6934C140.676 34.1816 139.539 35.3418 138.145 36.1738C136.75 37.0059 135.221 37.3984 133.557 37.3516C131.975 37.3281 130.61 36.8945 129.461 36.0508C128.325 35.207 127.493 34.0586 126.965 32.6055C126.438 31.1523 126.25 29.5527 126.403 27.8066C126.579 25.8379 127.112 24.0684 128.002 22.498C128.893 20.9277 130.036 19.7148 131.43 18.8594C132.836 17.9922 134.383 17.582 136.071 17.6289ZM129.602 27.8242C129.52 28.5625 129.52 29.3301 129.602 30.127C129.719 31.5098 130.129 32.6113 130.832 33.4316C131.547 34.252 132.496 34.6797 133.68 34.7148C134.735 34.75 135.707 34.4922 136.598 33.9414C137.489 33.3789 138.239 32.5352 138.848 31.4102C139.457 30.2852 139.85 29.0371 140.026 27.666C140.12 26.5879 140.137 25.6797 140.079 24.9414C139.938 23.5234 139.51 22.4043 138.795 21.584C138.08 20.7637 137.131 20.3301 135.948 20.2832C134.307 20.248 132.912 20.8926 131.764 22.2168C130.616 23.541 129.907 25.2754 129.637 27.4199L129.602 27.8242ZM146.747 27.4551C147.029 25.3809 147.585 23.582 148.417 22.0586C149.261 20.5234 150.28 19.3926 151.476 18.666C152.683 17.9277 154.001 17.5762 155.431 17.6113C157.634 17.6582 159.298 18.4902 160.423 20.1074L161.056 17.9805H163.974L160.81 36.5957C160.47 39.0215 159.486 40.9609 157.857 42.4141C156.228 43.8789 154.218 44.5762 151.827 44.5059C150.538 44.4824 149.302 44.1777 148.118 43.5918C146.946 43.0059 146.021 42.2031 145.341 41.1836L147.152 39.2324C148.3 40.9316 149.818 41.8047 151.704 41.8516C153.216 41.8984 154.493 41.4766 155.536 40.5859C156.591 39.6953 157.288 38.4297 157.628 36.7891L157.98 35.1016C156.433 36.6484 154.622 37.3984 152.548 37.3516C151.364 37.3164 150.333 37 149.454 36.4023C148.587 35.793 147.913 34.9199 147.433 33.7832C146.952 32.6348 146.689 31.3574 146.642 29.9512C146.618 29.2598 146.654 28.4277 146.747 27.4551ZM149.823 29.2656C149.788 30.9414 150.075 32.2422 150.685 33.168C151.306 34.082 152.238 34.5625 153.48 34.6094C155.378 34.6562 157.013 33.7246 158.384 31.8145L159.878 23.0781C159.175 21.3438 157.904 20.4414 156.064 20.3711C154.341 20.3242 152.923 21.0273 151.81 22.4805C150.708 23.9336 150.058 25.8965 149.859 28.3691L149.823 29.2656ZM177.586 31.8496C177.762 30.5371 177.041 29.6113 175.424 29.0723L172.119 28.1055C169.33 27.1445 167.982 25.5508 168.076 23.3242C168.158 21.6484 168.92 20.2773 170.361 19.2109C171.814 18.1328 173.52 17.6055 175.477 17.6289C177.398 17.6523 178.957 18.2148 180.152 19.3164C181.359 20.4062 181.939 21.8301 181.893 23.5879L178.729 23.5703C178.752 22.6211 178.453 21.8477 177.832 21.25C177.211 20.6523 176.385 20.3418 175.354 20.3184C174.252 20.2949 173.303 20.5645 172.506 21.127C171.768 21.6543 171.34 22.3457 171.223 23.2012C171.07 24.3027 171.744 25.1055 173.244 25.6094L174.844 26.0488C177.023 26.6113 178.57 27.3438 179.484 28.2461C180.398 29.1484 180.82 30.2676 180.75 31.6035C180.68 32.7871 180.293 33.8184 179.59 34.6973C178.887 35.5762 177.949 36.25 176.777 36.7188C175.605 37.1758 174.357 37.3867 173.033 37.3516C171.018 37.3281 169.354 36.7422 168.041 35.5938C166.729 34.4336 166.096 32.9453 166.143 31.1289L169.324 31.1465C169.324 32.2129 169.664 33.0684 170.344 33.7129C171.023 34.3574 171.955 34.6797 173.139 34.6797C174.299 34.7031 175.301 34.4629 176.145 33.959C176.988 33.4434 177.469 32.7402 177.586 31.8496Z" fill="#028090"/>
<rect x="4.68555" width="48.4168" height="50" rx="24.2084" fill="#028090" fill-opacity="0.9"/>
<g filter="url(#filter0_d)">
<path fill-rule="evenodd" clip-rule="evenodd" d="M27.8116 13.2213C24.3617 15.6788 22.007 19.4217 21.2655 23.6267L36.866 26.3775L39.6617 10.5226C35.5242 9.79301 31.2616 10.7638 27.8116 13.2213ZM30.3155 36.7987C33.7655 34.3412 36.1202 30.5982 36.8616 26.3932L21.2611 23.6424L18.4655 39.4974C22.603 40.2269 26.8656 39.2562 30.3155 36.7987Z" fill="#114B5F"/>
</g>
<g filter="url(#filter1_d)">
<path fill-rule="evenodd" clip-rule="evenodd" d="M24.5259 24.1307C24.5208 24.1588 24.5157 24.1869 24.5107 24.2151L24.5111 24.2151L22.776 34.055C25.1428 34.4724 27.6005 33.8071 29.6084 32.2056C31.5481 30.6586 32.9147 28.3604 33.4317 25.7881L33.4346 25.7886L33.4679 25.6C33.473 25.5718 33.4781 25.5437 33.4831 25.5155L33.4828 25.5155L35.2178 15.6756C32.851 15.2582 30.3933 15.9235 28.3854 17.525C26.4457 19.072 25.0791 21.3703 24.5622 23.9425L24.5592 23.942L24.5259 24.1307Z" fill="#E1CE7A"/>
</g>
<defs>
<filter id="filter0_d" x="14.4658" y="10.2856" width="29.1962" height="37.4487" filterUnits="userSpaceOnUse" color-interpolation-filters="sRGB">
<feFlood flood-opacity="0" result="BackgroundImageFix"/>
<feColorMatrix in="SourceAlpha" type="matrix" values="0 0 0 0 0 0 0 0 0 0 0 0 0 0 0 0 0 0 127 0"/>
<feOffset dy="4"/>
<feGaussianBlur stdDeviation="2"/>
<feColorMatrix type="matrix" values="0 0 0 0 0 0 0 0 0 0 0 0 0 0 0 0 0 0 0.25 0"/>
<feBlend mode="normal" in2="BackgroundImageFix" result="effect1_dropShadow"/>
<feBlend mode="normal" in="SourceGraphic" in2="effect1_dropShadow" result="shape"/>
</filter>
<filter id="filter1_d" x="18.7764" y="15.5537" width="20.4418" height="26.6229" filterUnits="userSpaceOnUse" color-interpolation-filters="sRGB">
<feFlood flood-opacity="0" result="BackgroundImageFix"/>
<feColorMatrix in="SourceAlpha" type="matrix" values="0 0 0 0 0 0 0 0 0 0 0 0 0 0 0 0 0 0 127 0"/>
<feOffset dy="4"/>
<feGaussianBlur stdDeviation="2"/>
<feColorMatrix type="matrix" values="0 0 0 0 0 0 0 0 0 0 0 0 0 0 0 0 0 0 0.25 0"/>
<feBlend mode="normal" in2="BackgroundImageFix" result="effect1_dropShadow"/>
<feBlend mode="normal" in="SourceGraphic" in2="effect1_dropShadow" result="shape"/>
</filter>
</defs>
</svg>
